<?xml version="1.0" encoding="utf-8"?>
<!-- Generator: Adobe Illustrator 24.2.3, SVG Export Plug-In . SVG Version: 6.00 Build 0)  -->
<svg version="1.1" id="Layer_1" xmlns="http://www.w3.org/2000/svg" xmlns:xlink="http://www.w3.org/1999/xlink" x="0px" y="0px"
	 viewBox="0 0 5000 3072.666" enable-background="new 0 0 5000 3072.666" xml:space="preserve">
<path d="M4004.714,3016.28c-3.501-11.401-16.048-16.079-27.109-14.964c-11.897-22.245-37.054-31.849-56.139-46.782
	c-6.878-24.259-30.021-39.161-40.431-61.653c-1.395-11.092,1.766-23.019-3.253-33.398c-7.095-15.181-12.95-32.283-10.007-49.168
	c6.568-4.09,14.592-4.244,21.842-6.692c9.48-16.235,7.281-36.218,2.509-53.66c-4.802-2.696-9.542-5.453-14.189-8.241
	c0.372-21.253-4.461-42.414-1.549-63.605c4.74-31.106,7.343-63.326,0.186-94.277c-4.74-21.873-5.112-44.304-8.52-66.363
	c-2.2-18.651-7.064-37.054-5.948-55.984c-4.009-41.067-10.355-39.877-14.81-108.312c0.366-12.825-6.998-5.166-23.887-61.561
	c-4.09-14.282-14.158-26.056-17.814-40.431c-1.704-26.892,0-54.621-8.613-80.49c-3.129-11.401-5.917-22.833-8.086-34.39
	c-2.355-12.888-10.1-24.166-11.711-37.178c0.248-7.497,3.594-14.406,5.143-21.656c4.09-15.243,0.96-31.044,0.651-46.503
	c-3.966-36.218-0.899-72.9-6.321-108.993c-2.819-15.274-8.086-30.269-7.281-45.977c0.836-28.906-1.673-57.75-0.124-86.624
	c1.208-13.694-4.554-26.768-3.377-40.431c1.208-21.13-3.811-41.887-7.374-62.552l-2.727-1.859
	c2.623-26.449,8.765-15.121-6.041-37.612c1.146-14.499,0.403-29.123,2.881-43.498c2.944-18.62-2.199-37.147-1.921-55.767
	c0.589-23.856-16.978-42.693-20.355-65.805c16.885-6.94,34.978-10.41,51.677-17.907c9.666-4.276,20.231-5.67,30.548-7.869
	c4.214-19.147-12.114-35.009-13.012-53.846c0.093-20.134-13.522-44.447-17.226-93.255
	c-30.118-201.794-68.136-244.603-63.482-277.905c8.892-7.033,21.254-6.134,30.951-11.68c29.554-17.469,23.763-12.491,29.153-38.014
	c4.616-2.85,9.574-5.701,12.455-10.565c8.148-13.229,23.081-21.563,27.636-37.147c15.413-52.099,11.084-46.837-10.224-73.984
	c2.602-22.586,4.771-45.233,6.042-67.912c-6.337-67.666-4.755-111.054-11.34-142.98c-3.749-15.305,0.403-30.703,1.115-46.07
	c-0.899-22.152-8.768-43.219-12.671-64.937c-6.754-34.668-27.233-66.394-57.161-85.354c-53.41-18.539-172.682-28.999-204.602-49.664
	c-9.418-5.763-20.076-8.768-30.269-12.702c-2.014-17.505-10.75-34.018-23.763-45.729c-10.038-1.518-19.673,2.633-29.03,5.515
	c-4.957-8.714-21.181-57.194-22.555-84.518c7.343-3.005,16.792-5.267,18.992-14.128c6.259-23.236-1.425-47.185-6.382-69.957
	c-2.107-6.072-1.89-14.128-8.055-17.783c-4.957-4.585-13.694-6.382-14.933-13.787c-3.222-16.575-10.503-31.942-16.668-47.526
	c-10.781-16.854-23.918-32.314-32.655-50.438c-2.757-4.864-3.78-11.773-10.193-12.919c-14.19-5.639-27.543-13.074-40.121-21.625
	c-1.859-3.563-3.718-7.126-5.484-10.689c-43.283-10.655-64.271-6.545-102.859,0.713c-25.188,7.002-43.622,26.768-59.887,46.039
	c-4.369,9.542-10.379,18.155-15.119,27.45c-6.816,26.025-19.457,51.46-16.08,79.096c6.891,44.751-8.933,44.93,34.328,99.761
	c-1.58,6.072-9.171,10.286-6.971,17.288c4.523,11.835,10.162,23.391,17.597,33.708c8.768,11.804,10.627,26.892,17.443,39.749
	c7.714,2.943,15.739,1.611,23.701,0.744c9.883,21.656,21.904,42.848,40.958,57.843c-2.2,12.362-2.355,25.219,3.284,36.744
	c-7.002,10.906-18.868,16.42-29.711,22.648c-4.493-1.084-8.954-2.169-13.384-3.315c-8.706,3.656-12.919,12.517-20.107,18.031
	c-22.059,15.646-51.739,10.937-74.573,24.878c-9.511,5.794-20.975,6.506-30.889,11.123c-8.334,7.126-6.103,19.828-12.485,28.286
	c-14.995,21.749-17.35,48.703-20.231,74.17c-1.146,20.231-15.801,37.983-11.773,58.741c4.988,5.639,11.897,9.356,16.327,15.553
	c4.802,12.888-0.124,26.396-1.549,39.409c-1.084,10.007-4.74,19.364-7.683,28.906c-4.462,14.561,2.076,30.548-4.276,44.707
	c-13.942,33.801-17.721,70.917-15.367,107.165c2.199,17.784,16.668,31.26,31.911,39.068c7.591,3.098,10.937,10.751,14.375,17.629
	c7.869,17.35,25.777,26.365,41.206,35.846c16.482,4.059,33.367,7.188,50.407,7.9c4.337,16.265-8.303,34.916,6.165,48.083
	c0.31,6.103-1.084,12.795,2.168,18.372c1.983,4.957,6.661,9.79,4.523,15.584c-3.253,19.023-18.341,32.097-28.131,47.774
	c-7.838,12.362-22.74,19.704-27.109,34.173c-0.868,12.95-1.177,26.055-0.899,39.037c0.558,11.68,11.835,19.642,13.075,30.641
	c-39.486,106.711-12.098,112.588-19.24,142.887c-5.236,21.439-7.312,43.684-15.646,64.318c-4.121,9.852-2.51,20.727-4.523,31.013
	c-10.162,37.395-22.678,76.525-14.716,115.561c1.797,10.844,9.294,19.426,13.291,29.401c2.85,12.517,2.509,25.467,3.408,38.2
	c1.518,13.663-5.298,27.357-0.682,40.865c10.379,31.787,12.393,65.619,10.379,98.862c4.585,44.211,1.642,88.7,8.241,132.787
	c3.315,15.398,5.329,31.013,6.816,46.72c0.806,18.93,5.918,37.302,7.807,56.17c8.57,95.009,48.471,88.004,30.052,160.485
	c-3.687,18.992-20.076,33.088-21.191,52.824c-1.146,20.727-0.155,41.484-0.589,62.242c-0.279,11.68-7.807,21.904-7.405,33.801
	c-2.107,21.904,5.793,43.064,4.337,64.969c7.56,63.884-1.89,128.574,7.188,192.334c1.67,14.524,8.551,74.26,7.931,86.531
	c-7.869,2.602-17.783,5.917-19.426,15.305c-3.594,16.172,3.47,32.655,11.587,46.41c4.554,7.962,14.406,9.573,22.338,12.424
	c2.23,22.09-2.788,43.56-7.312,64.969c-15.987,20.943-35.164,39.377-54.125,57.626c-10.844,11.494-19.147,25.467-31.26,35.691
	c-10.317,5.918-18.713,14.314-26.861,22.865c-2.547,2.673-11.418,1.775-35.175,3.545c-12.758,0.95-27.829-0.688-34.455,12.477
	c-1.69,3.358-20.913,26.668-14.704,31.131c10.845,7.777,23.3,13.013,35.878,17.35c10.224,1.022,20.634,0.744,30.857-0.465
	c30.909-5.521,84.169,3.986,191.374-9.047c11.928-3.16,21.068-12.424,32.871-16.049c15.41-4.633,35.002-10.625,42.777-25.808
	c27.286-53.289-8.951-29.559,4.842-197.941c0.837-1.301,2.541-3.965,3.408-5.298c0.378-0.58,25.84-9.738,26.886-10.98
	c1.41-1.676,0.445-8.489,0.533-10.673c1.821-45.255-0.942-40.977-6.94-48.366c0.526-38.665,5.731-77.113,4.12-115.809
	c-1.797-19.526,28.588-138.153,14.469-257.116c7.188-22.245,1.983-45.574,5.329-68.283c0.806-18.434-4.864-36.961-1.24-55.271
	c3.377-10.472,7.714-20.727,9.047-31.725c21.16-149.106,3.132-149.01,16.141-185.487c6.134-19.085,5.36-39.316,8.985-58.865
	c4.895-36.651,15.645-72.156,22.059-108.498c3.625-24.259-4.369-50.624,8.427-73.024c1.549-5.608,7.126-1.58,10.193,0.124
	c7.405,0.496,16.482-1.952,22.121,4.461c16.304,17.986,67.918,164.078,75.936,189.669c6.072,21.16,9.139,43.126,16.172,64.039
	c8.892,25.839,10.348,53.784,22.276,78.693c10.906,22.709,13.012,48.083,19.301,72.218c2.882,13.911,7.467,27.481,9.078,41.701
	c7.088,54.229,17.932,72.769,22.028,90.59c5.112,23.298,15.956,44.768,24.135,67.044c3.346,14.592,5.329,29.526,9.759,43.901
	c1.983,9.759,7.993,18.062,10.379,27.667c0.014,0.117,8.867,78.882,11.587,90.497c21.621,81.415,17.113,102.421,22.399,126.188
	c21.362,100.432,19.299,96.202,25.963,108.405c2.293,20.603,0.868,41.763,1.518,62.583c38.277,17.167,25.49,14.74,44.427,12.733
	c5.577,11.556,1.58,24.321,1.518,36.496c-1.982,26.087,12.114,49.261,18.372,73.86c6.599,15.894,1.766,33.243,4.802,49.663
	c1.033,5.586,4.593,10.796,5.701,16.525c1.18,6.1-0.646,10.663,3.624,15.839c7.367,8.929,14.495,22.035,24.538,28.05
	c21.101,14.844,16.636,15.642,49.938,23.824c40.234,9.886,76.024,10.156,128.979-6.803c2.739-0.877,10.621-2.081,12.377-4.337
	c1.657-2.129,0.433-8.967,0.772-11.831C4002.161,3035.238,4007.053,3023.856,4004.714,3016.28z"/>
<path d="M2460.033,207.584c16.052-3.947,34.361-7.611,49.788,0.744c15.586,8.441,32.624,13.911,48.114,22.493
	c61.396,45.85,57.85,51.646,90.002,124.298c6.759,15.272,7.759,32.102,11.556,48.176c9.708,41.094,23.732,81.296,27.542,123.617
	c3.563,22.555,5.922,45.454,13.198,67.261c3.43,10.281,10.999,18.806,12.362,29.835c17.938,11.773,35.381,25.56,45.233,45.14
	c12.95,12.703,33.212,14.654,46.225,27.698c29.03,21.935,45.039,57.87,47.247,93.626c1.27,20.57,2.63,41.282,0.496,61.808
	c-6.047,58.162,29.046,86.962-50.19,198.871c-6.858,9.686-17.288,15.708-25.095,24.382c-0.36,11.266,21.849,80.743,22.678,120.55
	c2.438,117.037,19.456,85.652,32.128,149.176c7.745,19.208,4.245,40.369-1.859,59.516c-5.422,1.487-10.813,3.036-16.141,4.523
	c3.656,11.215,4.368,22.833,2.355,34.452c9.052,34.033-1.244,66.39,18.558,131.052c56.612,126.224,11.633,306.741,13.477,349.597
	c0.976,22.673-8.396,43.622-13.694,65.247c-7.498,24.104-5.484,49.694-10.193,74.294c-2.664,30.765-0.887,61.973-5.762,92.573
	c-21.15,132.745-12.561,148.3-18.248,350.278c2.417,44.397,0.96,89.475,11.184,133.035c-1.282,24.426,23.352,255.798,16.08,325.989
	c-60.038,19.749-61.776,8.383-88.607,16.513c5.979,8.148,13.88,14.592,22.802,19.364c13.15,37.2,14.168,13.171,13.136,53.567
	c-60.566,22.53-56.618,14.415-113.455,16.637c-17.81,0.697-36.125,2.355-53.319-3.346c-3.501-20.572-9.802-41.222-6.196-62.211
	c2.15-12.517,1.518-25.436-1.518-37.674c-16.555-18.612-14.406-0.258-19.364-59.361c-1.139-13.579-5.168-26.735-5.143-40.431
	c0.063-34.909-10.791-138.832-9.821-163.986c-0.639-19.236,3.907-34.745-1.797-93.286c-6.754-31.384-7.033-63.698-7.095-95.64
	c-5.235-73.611-10.125-67.491-8.83-83.496c6.599-81.557,9.38-61.438,2.603-96.012c-6.21-31.679-7.931-63.977-11.742-95.919
	l-6.475,0.372c-3.129,18.341,1.766,37.24-3.594,55.271c-3.315,14.314-6.723,28.689-9.233,43.157
	c17.799,116.635,9.988,62.18,12.114,154.815c0.421,18.336,5.132,36.534,2.571,54.899c-0.014,0.1-11.655,148.901-13.88,217.863
	c-6.042,46.287,1.425,94.153-12.517,139.355c2.385,16.699,5.546,33.46,3.501,50.5c-8.334,3.439-18.174,7.648-20.355,17.442
	c-3.062,13.75,0.491,28.205-2.385,42.042c-2.892,13.91-45.426,21.53-72.497,32.902c-26.087,10.959-54.693,11.846-82.349,15.088
	c-25.078,2.939-54.589,11.246-76.586-5.577c-0.341-1.642-0.991-4.926-1.332-6.568c-9.201-7.56-10.534-21.191-4.151-30.982
	c5.577-15.584,24.909-13.446,36.496-22.214c-5.05-4.461-11.587-8.334-13.291-15.274c-79.724-258.378-27.106-356.343-40.338-610.09
	c0.558-29.092-5.029-57.875-4.74-86.904c0.352-35.329-7.192-70.016-7.219-105.275c-0.019-25.003-4.825-49.576-5.825-74.511
	c-1.602-39.965-22.008-88.73-35.443-184.743c-5.908-77.204-23.477-204.446-18.558-292.156
	c-2.039-59.357,28.313-105.548,22.554-164.605c-0.87-8.917-0.775-17.876-0.341-26.799c-8.427-6.537-19.146-8.985-27.512-15.615
	c-0.96-14.747,1.676-29.297,4.059-43.777c3.568-21.687-0.991-43.467-0.341-65.216c-1.704-51.367,8.458-101.898,15.863-152.429
	c-10.162-3.842-20.764-6.31-30.703-10.534c-53.511-22.741-54.389-147.884-52.452-205.811c6.227-43.312,17.482-85.733,27.977-128.202
	c4.516-18.275,6.607-93.826,81.915-143.476c41.14-20.722,77.058-13.009,85.633-31.663c22.299-48.506,14.704-44.522,16.575-86.81
	c1.295-29.265,10.441-57.595,10.286-86.934c7.777-23.856,8.241-49.261,17.04-72.807c15.035-78.065,32.288-114.618,53.815-147.999
	c4.616-7.157,6.444-15.863,11.711-22.617c7.188-6.103,15.893-10.069,23.577-15.522
	C2434.876,208.359,2447.626,210.635,2460.033,207.584z"/>
<path d="M4483.379,111.365c20.824-8.512,56.882-26.137,89.01,5.546c6.847,6.878,9.976,16.606,17.071,23.329
	c4.709,4.647,7.87,10.503,11.804,15.801c5.669,7.807,17.814,9.635,20.324,19.921c1.704,6.754,7.962,10.41,11.742,15.832
	c4.399,11.494,8.427,23.112,12.393,34.73c8.799,12.362,12.331,27.388,15.522,41.949c-3.47,19.487-1.642,39.502-6.444,58.803
	c1.053,10.348,10.937,18.806,7.9,29.959c-4.245,21.346-13.911,41.422-25.281,59.826c-7.498,12.424-24.383,14.778-30.765,28.007
	c-8.969,17.562-18.406,74.517-19.797,99.203c-0.496,7.467,5.484,12.857,9.791,18.155c27.151-18.957,36.98-39.034,45.76-35.35
	c10.813,9.759,19.364,21.966,31.074,30.765c50.776,32.209,35.295,34.443,47.464,51.677c7.063,9.232,18.403,13.229,27.697,19.766
	c8.117,5.67,11.494,17.04,21.718,19.921c50.692,17.418,51.231,42.379,67.106,73.148c11.494,21.935,12.424,47.402,22.803,69.771
	c2.323,20.758-8.117,40.245-16.204,58.772c-3.842,33.956-3.036,68.191-3.625,102.301c1.333,36.837-9.666,72.435-15.088,108.559
	c-4.864,32.252-19.952,62.8-18.93,95.826c0.372,10.689-5.236,20.572-5.019,31.105c18.893,55.669,28.323,109.782,27.791,201.318
	c-1.897,72.472,5.728,38.596,4.647,117.606c-0.557,14.685,4.958,30.579-3.005,44.18c-8.365,13.353-17.102,28.751-13.105,45.14
	c4.461,20.727-0.589,42.104,4.089,62.831c3.067,10.007-6.877,18.62-2.478,28.689c-0.979,46.971,11.109,21.023,3.005,262.6
	c-1.061,23,1.144,150.348-0.991,179.445c-5.886,35.195,9.511,70.638,0.991,105.647c3.625,8.179,10.348,15.119,11.185,24.445
	c1.983,15.739,7.498,30.858,8.582,46.751c0.558,8.489,4.399,16.203,7.621,23.949c4.307,10.441,14.407,16.544,21.75,24.692
	c0.186,12.61,2.479,25.219,1.115,37.86c-1.022,9.635,3.625,18.558,4.523,28.007c1.425,28.162,11.029,55.271,11.153,83.619
	c0.496-6.041,3.346,31.26,6.785,55.612c4.771,11.897,3.315,24.63,2.262,37.085c-1.425,9.047,4.337,16.73,6.723,25.064
	c8.365,34.08,18.341,67.757,25.591,102.146c26.314,106.831,12.94,96.049,6.196,126.932c-8.582,4.461-13.632,12.733-17.443,21.253
	c10.72,4.74,21.532,10.007,30.27,18.062c7.498,17.845,1.053,38.448-9.171,53.97c2.741,40.793,19.903,21.774,58.617,72.435
	c6.414,13.167-5.453,24.166-6.444,36.775c-11.866,6.692-24.383,12.889-37.953,15.026c-160.245,15.032-135.216-33.39-149.889-58.122
	c-3.935-8.706-14.84-8.861-22.152-13.074c-14.127-7.652-29.091-17.132-35.009-32.839c-12.575-33.375-3.277-30.24-1.912-41.052
	c1.985-15.717,3.699-27.246,3.771-38.448c-0.16-23.419,17.456-18.659,8.612-70.514c-11.618-8.055-17.318-21.284-25.993-31.911
	c-50.069-63.642-37.042-87.526-48.796-148.588c-5.732-36.899,3.346-75.564-9.14-111.41c-1.487-14.159,2.448-29.03-3.408-42.538
	c-5.112-13.074-4.369-27.418-1.859-40.958c3.47-11.246-6.63-20.138-8.241-30.672c-2.23-13.632-5.577-27.388-3.408-41.237
	c1.394-15.739-15.956-24.63-17.908-39.501c-1.797-12.207-12.175-20.448-15.924-31.911c-7.064-15.243-6.692-32.345-9.573-48.579
	c-3.188-28.739-11.42-8.874-40.028-162.313c-1.921-16.885-5.669-33.46-10.534-49.695c-10.936-36.063-8.612-74.511-19.271-110.604
	c-6.575-19.444-3.638-52.252-19.828-132.725c-21.203,48.887-19.583,27.243-19.89,157.913c-3.78,33.119-7.002,66.363-12.733,99.234
	c-9.6,30.268-0.418,80.01-27.884,185.828c-4.306,17.784-1.487,37.333-10.472,53.908c-5.453,9.883-6.568,21.191-8.458,32.128
	c-1.487,8.551-9.047,14.22-11.959,22.183c-2.603,7.281,1.177,14.468,2.634,21.594c3.873,19.55-1.364,39.161-3.718,58.524
	c1.425,14.251-1.89,37.333-2.943,34.142c4.341,41.168-24.286,82.126-21.75,117.978c2.194,54.725-8.698,104.294-15.494,216.385
	c-0.634,10.458-6.173,19.41-8.333,29.799c-6.785,32.637,0.302,41.243-25.497,50.155l0.62,5.948
	c17.967,20.15,37.976,23.109,22.289,53.496c-1.715,3.322-3.467,7.881-6.143,10.446c-3.73,3.576-9.47,5.877-13.513,9.391
	c-8.985,3.129-18.031,6.042-27.171,8.489c-1.58,14.128-3.718,28.255-3.284,42.507c-5.36,7.467-10.44,15.739-18.744,20.293
	c-15.088,7.219-32.252,5.174-48.177,8.365c-16.11,5.081-33.274,5.019-49.384,10.069c-20.107,6.166-41.299,2.603-61.901,3.47
	c-12.052-0.837-24.94,2.075-36.403-2.014c-6.833-2.438-18.846-26.99-14.772-33.653c1.073-1.754,2.929-2.849,4.71-3.875
	c5.448-3.134,6.484-11.539,13.098-12.694c10.534-3.036,22.555-6.01,28.224-16.513c5.236-10.534,18.124-11.959,25.467-20.448
	c-0.124-2.323-0.341-6.971-0.434-9.294c12.259-11.778,11.624-14.879,18.094-32.841c-1.014-18.112-9.767-6.834,13.88-37.55
	c-5.825-3.78-12.176-6.568-18.744-8.52c-9.202-16.947,5.515-33.398,16.792-44.861c-0.31-11.215,0.062-22.524,3.346-33.274
	c7.219-37.983-4.183-76.06-3.284-114.136c2.404-84.81,8.295-51.19,8.055-99.296c0.031-17.814,8.458-34.452,8.489-52.235
	c-9.982-77.396-4.733-62.84,4.957-98.15c1.364-9.666,0.527-19.457,0.868-29.123c-0.898,6.134-1.704,12.331-2.448,18.558
	c1.395-21.842-3.067-43.56-2.323-65.402c1.456-10.193,12.423-16.885,11.773-27.76c-0.573-36.631-9.422-50.177,23.949-68.531
	c-19.988-43.307-7.616-37.132-6.537-76.679c0.062-13.508,5.855-27.45,0.31-40.493c-28.241-98.453-21.204-158.635-24.506-213.742
	c-2.912-23.67,5.484-47.928-2.292-71.134c-5.453-17.133-4.275-35.195-4.957-52.886c-5.05-47.464,5.236-94.928,0.589-142.392
	c-0.093-10.441-1.704-22.152,4.678-31.167c-9.068-13.758-16.669-18.653-12.672-46.534c2.603-8.984,11.03-15.119,13.136-24.32
	c-4.678-10.967-21.873-7.25-26.427-18.558c-6.444-24.661,18.527-44.242,12.765-68.81c-3.687-8.086-10.069-15.088-10.472-24.352
	c-2.014-24.847-7.653-49.354-7.498-74.387c-1.735-46.101,10.224-91.21,12.486-137.063c-27.388-9.264-54.869-18.372-82.225-27.729
	c-10.937-3.501-18.558-13.756-21.161-24.599c-13.987-56.957-17.999-120.386-14.871-154.35c0.589,3.098,4.988-17.474,8.272-30.517
	c4.152-15.46-2.633-31.198,0.155-46.782c4.244-26.52,4.337-54.961,18.929-78.507c6.63-10.038,2.913-22.493,3.997-33.708
	c-0.124-12.981,9.14-23.825,9.325-36.744c1.115-12.548-0.434-28.038,10.317-36.992c25.934-21.839,40.738-93.053,77.578-99.203
	c15.397-1.115,30.331-5.112,45.202-9.14c-1.115-4.74-2.385-9.449-3.749-14.097c5.484-8.582,10.658-17.474,17.319-25.25
	c13.818-1.27,26.768,4.492,40.152,6.785c7.374,1.425,13.291-3.997,19.271-7.405c0.372-5.608-0.217-11.463,1.58-16.854
	c17.752-20.51,45.45-26.148,70.359-33.243c2.044-15.615,0.712-31.415-0.868-46.999c-9.09-19.719-16.843-11.328-29.123-61.653
	c-2.169-10.844-9.45-19.704-11.495-30.548c-4.864-7.683-7.9-16.265-8.768-25.312c-1.58-12.733-8.303-24.135-9.852-36.868
	c1.487-5.515,6.32-9.171,9.821-13.477c0.434-18.527-4.771-36.527-6.104-54.899c-1.208-13.601,7.405-26.644,3.222-40.183
	c-2.324-7.838-5.267-16.327-1.178-24.166c7.684-16.916,6.538-37.705,19.921-51.863
	C4407.689,132.551,4472.22,117.131,4483.379,111.365z"/>
<path d="M713.94,226.934c14.035-4.461,29.03,0.682,41.453,7.467c9.418,5.267,20.696,3.625,31.075,4.028
	c13.601,9.418,23.546,22.895,36.465,33.119c7.9,5.825,4.368,17.071,9.511,24.537c6.785,10.286,17.659,18.775,18.496,32.004
	c6.444,25.777,8.675,52.669,3.563,78.941c-0.124,16.544-10.255,34.699,0.836,49.602c-0.372,24.104-6.661,49.106-23.112,67.416
	c-4.43,6.134-12.486,6.847-19.085,9.078c-10.079,49.573-23.779,49.74-32.035,65.898c-10.255,30.021-22.864,59.547-27.14,91.241
	c15.615-3.16,36.651-9.356,48.734,4.678c7.374,6.816,3.966,17.69,3.687,26.427c9.463,11.579,37.27,13.039,50.283,58.586
	c13.508,4.678,27.729,7.962,40.276,14.995c15.677,9.326,21.439,27.388,30.114,42.321c20.625,40.953,34.729,37.142,24.445,88.824
	c-6.134,20.324,9.79,40.586,1.735,60.941c-7.56,17.381-7.714,36.496-9.449,55.085c-2.076,39.09-33.247,205.611-88.607,248.411
	c-9.449,4.957-20.603,4.771-30.579,8.241c6.15,25.876,41.234,28.343,38.448,84.456c-0.527,9.945-7.281,18.403-7.745,28.317
	c3.77,47.451,31.701,63.184,29.804,92.48c1.363,16.482-12.207,27.636-21.47,39.192c-2.664,23.391,3.873,46.441,9.388,68.934
	c3.78,9.79-7.219,17.845-4.399,27.729c0.282,0.691,13.794,53.527-1.177,94.246c-9.124,24.813-9.501,55.286-11.726,81.431
	c-0.841,9.882-4.49,18.792-5.969,28.594c-1.905,12.621-2.736,25.374-3.62,38.097c-4.152,14.097-7.59,28.441-5.515,43.281
	c-1.115-8.489-2.014-16.978-3.191-25.436c5.313,38.169-7.018,111.174-7.909,113.372c-1.395,3.441-4.495,6.159-5.645,9.891
	c-2.819,9.144,0.058,3.001-15.011,68.947c-3.129,14.562,1.115,29.278-0.031,43.932c-3.16,20.541,3.408,41.144-0.651,61.684
	c-2.726,11.123,5.763,20.324,6.94,30.982c1.084,15.584,2.819,31.477-2.54,46.534c0.96,18.682,11.525,36.372,9.171,55.581
	c-3.594,18.775,4.09,37.735-0.434,56.51c-8.179,35.443-9.821,71.877-14.221,107.847c-1.673,19.921-8.644,38.913-10.007,58.896
	c-1.053,15.583-6.878,30.548-6.351,46.317c0,9.573,1.27,20.014-5.081,28.131c-2.695,22.74-10.658,44.737-9.945,67.819
	c-0.527,12.61-2.664,25.064-4.152,37.581c-1.753,14.436-7.04,0.985-16.544,74.17c-2.293,19.89,3.501,39.316,6.289,58.834l1.983,1.89
	c0.682,8.644,2.324,17.567-0.217,26.087c-2.479,8.241-6.599,15.955-8.086,24.506c-1.983,15.894-10.317,30.672-7.467,47.123
	c10.968,7.188,23.143,12.609,33.088,21.315c7.591,6.351,9.511,16.482,13.632,25.033c1.208,9.542,1.022,19.147,0.527,28.782
	c-35.199,24.616-99.593,21.193-141.958,14.902c-10.689-1.921-19.766-8.241-29.309-13.012c-1.27-12.609-2.881-26.365,3.408-37.952
	c-5.422-16.761-7.374-35.629-19.797-49.075c-16.265-25.87-11.587-57.44-11.122-86.438c-0.093-20.293,9.047-38.913,11.091-58.896
	c3.377-41.422-3.904-83.341,3.563-124.453c2.417-17.009-0.124-34.452,4.616-51.151c16.198-144.889-7.305-238.857,7.993-326.236
	c0.465-14.22-8.303-26.675-11.091-40.369c-5.856-15.212,0.929-30.982,0.403-46.503c-0.837-33.15,1.022-66.487-4.399-99.296
	c-7.591-49.323-4.709-99.73-13.477-148.96c-3.284-20.355,2.571-41.825-5.391-61.375c-3.067-10.1-0.248-21.005-3.377-31.136
	c-5.763-21.904-12.888-43.839-12.424-66.765c1.022-4.895-3.346-6.506-6.971-8.055c-2.169,15.801-7.405,31.013-8.644,46.937
	c-1.332,15.77-5.236,31.725-13.973,45.14c-15.801,26.179-19.983,56.944-30.579,85.199c-5.36,12.981-2.324,27.635-7.714,40.617
	c-20.448,57.936-25.436,119.496-34.761,179.817c-1.797,18.62-17.691,32.779-16.761,51.925c-0.341,14.035-4.616,27.512-7.776,41.082
	c-2.664,11.804-10.72,21.315-14.654,32.686c-3.532,10.038-10.936,18.217-14.159,28.379c-0.651,10.286,2.943,20.665,0.062,30.889
	c-2.881,12.424-4.647,25.126-8.458,37.333c-2.912,9.604-11.494,17.257-10.813,27.914c0.775,16.389-8.272,30.765-9.976,46.782
	c-1.797,18.806-8.706,36.465-15.088,54.063c-4.43,30.331-17.938,58.338-25.219,87.988c-7.312,34.204-9.14,69.492-19.425,103.076
	c-12.529,42.141-7.034,185.466-46.999,219.721c-38.002,42.304-28.627,41.083-37.953,54.311
	c-16.434,17.586-46.042,24.074-68.729,28.604c-44.961,8.977-170.232,44.688-172.236,4.164c-0.423-8.555-5.371-29.302-0.642-36.55
	c4.934-7.563,22.436-9.84,30.158-13.97c31.137-20.262,65.526-35.846,92.914-61.499c7.436-22.771-5.453-44.892-4.771-67.695
	c16.19-34.066,38.723-24.177,48.517-38.107c1.487-9.79-1.859-19.518-4.43-28.813c-33.542-93.918,16.926-198.894,17.845-255.908
	c10.135-48.045,12.28-107.005,14.468-120.55c2.602-16.049-2.912-33.553,5.174-48.486c7.498-14.19,13.415-29.278,15.801-45.171
	c23.812-91.743,13.849-53.523,37.674-84.58c3.253-12.145-3.625-24.011-12.641-31.818c3.597-38.325-5.689-15.515,4.802-59.454
	c4.244-16.637,4.152-34.173,10.162-50.376c4.337-16.234,14.933-31.632,11.711-49.137c-0.403-16.141-12.176-29.897-10.131-46.255
	c1.456-12.393,1.58-24.847,1.58-37.271c0.093-12.95,8.458-24.289,7.993-37.302c0.434-10.41-2.2-20.665-1.673-31.044
	c3.842-28.72-0.713-57.812,3.718-86.501c-1.642-18.868,4.554-39.316-5.824-56.542c3.966-9.666,9.666-19.549,7.962-30.393
	c-1.766-11.463-3.625-23.111,0.031-34.419c5.59-17.294-2.493-35.618,2.72-52.943c17.133-56.951,18.513-44.599,6.823-59.212
	c6.041-31.229,12.145-62.428,20.727-93.069c4.895-14.933-9.604-28.472-4.368-43.436c4.461-12.021,10.41-23.484,12.733-36.218
	c1.797-9.759,11.494-16.265,12.176-26.21c-14.004-12.919-25.746-28.131-36.589-43.777c-7.792-23.325,11.946-56.897,26.706-76.401
	c0.341-8.148,0.124-16.389-1.735-24.352c-6.444-31.787-2.169-64.318-4.368-96.415c-18.341-2.726-31.601-15.925-47.464-24.042
	c-6.785-3.594-9.542-11.215-13.725-17.164c-6.599-10.751-17.195-19.549-19.023-32.655c-12.868-44.466-11.14-135.978,20.727-218.451
	c8.954-17.257,12.455-36.496,17.474-55.085c4.988-16.668-2.076-35.195,6.754-51.027c7.374-11.897,15.986-23.05,24.413-34.235
	c10.751-10.689,16.978-26.892,32.5-31.818c14.654-4.461,29.773-8.024,45.171-8.303c15.305-0.31,31.601-6.413,46.101,0.96
	c6.692,3.346,14.19,3.408,21.501,3.253c7.064-10.317,16.885-18.403,28.813-22.4c14.592-4.74,18.465-22.524,33.15-27.574
	c9.511,5.019,18.744,10.534,27.945,16.079c4.461-5.329,8.21-11.649,14.19-15.367c9.883-3.78,19.549,3.098,29.587,2.881
	c6.32-22.028,15.863-43.312,17.845-66.363c1.642-19.828,6.01-39.471,5.329-59.454c-10.58-6.493-22.318-7.996-24.475-36.868
	c-0.867-16.575-3.935-33.057-2.571-49.725c3.005-1.983,6.01-3.997,9.047-5.979c-1.642-15.677,3.284-30.889,3.191-46.472
	c0.396-39.576,3.478-44.757,34.576-89.785c20.108-35,31.253-30.926,58.524-43.498C688.907,231.086,701.888,230.714,713.94,226.934z"
	/>
<path d="M1491.455,425.792c23.05,0.217,46.596-6.258,69.058,1.456c14.429,18.902,62.512,37.556,83.743,54.094
	c22.74,22.059,34.699,52.049,51.337,78.445c4.276,7.497,6.196,15.986,9.945,23.763c4.058,8.365,11.618,14.468,15.77,22.833
	c21.124,46.858,67.611,94.57,39.502,147.565c0.558,8.861,6.661,19.364-3.16,25.033c108.373,74.03,69.379,78.863,96.57,108.869
	c10.782,11.804,19.208,25.374,28.007,38.665c0.062,10.999-5.453,20.82-6.878,31.477c2.726,18.124,13.446,35.536,9.14,54.404
	c-3.625,8.365-10.41,14.84-14.53,22.957c-3.749,13.198,0.744,27.264-2.912,40.431c-10.75,28.41-25.064,56.17-28.534,86.718
	c-4.382,26.432-41.047,157.223-41.082,157.325c-6.413,19.24-1.89,40.307-8.148,59.609c-5.577,17.319-10.193,35.071-18.961,51.12
	c-6.599,12.083-8.334,26.118-15.057,38.138c-6.978,15.561-10.867,10.281,6.134,59.547c3.439,9.542,3.129,20.758,9.945,28.844
	c5.886,7.157,13.322,13.074,18.093,21.13c24.047,39.833,23.882,26.088,36.93,79.716c4.585,19.766,11.587,38.944,15.057,58.989
	c26.858,169.874,16.223,113.278,19.921,176.843c-0.62,11.804,1.487,23.515,1.549,35.319c-10.224,8.117-21.594,16.513-35.257,16.389
	c-14.654,0.372-22.864,15.832-37.085,17.814c-16.823,2.634-30.827-9.449-46.72-12.516c-48.01,240.454-86.068,266.359-40.152,396.224
	c17.633,36.394,64.611,129.388,60.941,208.289c3.842,2.819,0.527,13.167,0.465,19.735c-0.217,11.494,3.253,22.803,2.2,34.328
	c-1.983,26.861,1.332,53.784-0.775,80.645c1.208,26.706,8.024,54.776-2.293,80.521c-1.58,10.131-1.859,27.078-2.541,25.312
	c-0.527,8.241-3.067,16.141-4.337,24.29c-1.084,11.432,0.713,22.957-0.279,34.421c-3.408,4.151-7.807,7.343-11.804,10.875
	c2.634,8.923,4.523,18.589,10.875,25.807c33.114,40.906,3.198,22.274,18.341,95.981c34.445,42.868,26.728,55.381,26.271,64.997
	c-0.325,6.835-7.282,4.599-18.366,7.049c-21.21,4.688-43.572,10.535-66.336,9.777c-15.688-0.522-52.386,8.096-65.421,0.507
	c-23.996-13.971,0.336-72.582,5.502-88.185c3.284-9.232-3.532-22.493-14.438-20.262c-19.549,4.337-39.625,6.63-58.772,12.826
	c-34.746,10.951-64.053,10.612-116.235,9.561c-40.847-0.823-46.36,1.438-49.602-0.281c-6.893-3.655-0.026-33.385,8.172-44.878
	c9.635-13.508,27.79-2.974,40.183-10.596c13.105-6.878,25.591-16.296,41.082-16.544c1.735-14.654,17.319-19.983,26.211-29.649
	c11.742-12.238,25.374-22.709,35.691-36.218c6.506-7.931,4.028-18.93,4.585-28.348c-0.837-14.995,2.602-31.26-4.926-45.047
	c-7.002-13.043-12.702-26.985-15.119-41.608c1.704-35.102-11.587-68.438-19.178-102.208c-7.126-24.197-8.613-49.54-15.305-73.798
	c-5.05-14.716-3.315-30.517-5.979-45.636c-21.24-122.304-3.696-161.351-14.592-182.482c-8.117-17.226-8.303-37.147-17.845-53.784
	c-9.852-17.288-10.503-37.891-19.487-55.519c-67.955-135.909-81.09-187.158-93.286-245.839c-4.059-3.191-7.993-6.444-11.835-9.821
	c-3.501-24.909,4.492-50.376-2.943-74.79c-19.983-4.709-39.563-11.959-55.55-25.219c-2.262-12.114-0.062-23.887,2.757-35.598
	c-0.124-33.801,19.457-63.141,24.476-95.857c-7.591-3.439-17.598-5.856-20.355-14.809c-0.836-10.658,2.85-21.408,0.31-32.004
	c-3.408-6.661-9.325-11.618-13.601-17.69c-10.534-13.632-12.826-31.229-17.071-47.402c-3.904-12.145-10.1-23.98-9.264-37.116
	c1.363-19.085,1.208-38.479,6.413-57.037c4.461-16.018,4.151-34.142,15.336-47.526c13.105-16.668,22.74-36.032,27.047-56.851
	c2.85-20.665,22.586-33.491,26.644-53.691c10.441-41.763,33.553-78.848,46.38-119.806c26.718-102.894-25.994-97.312,58.214-196.857
	c7.374-7.869,5.05-19.333,6.94-28.999c16.327-29.897,23.856-64.937,46.627-91.272c7.281-8.923,17.814-13.973,27.605-19.58
	c1.952-29.711,17.876-55.829,24.32-84.518c-0.867-1.673-2.572-5.019-3.439-6.692c-11.525-2.819-23.267-6.351-32.221-14.592
	c-15.739-13.57-36.93-19.487-50.996-35.133c-12.083-13.911-25.343-27.481-32.097-44.985c-9.449-18-10.596-40.214-25.839-54.93
	c0.124-12.764-6.073-23.391-15.429-31.57c-16.792-46.764-19.416-92.104,0.96-137.806c3.377-15.894,14.778-27.852,25.002-39.78
	C1440.025,446.209,1464.532,432.422,1491.455,425.792z"/>
</svg>
