<?xml version='1.0' encoding='utf-8'?>
<svg xmlns="http://www.w3.org/2000/svg" version="1.0" width="6000.000000pt" height="4000.000000pt" viewBox="0 0 6000.000000 4000.000000" preserveAspectRatio="xMidYMid meet" id="svg6"> <metadata id="metadata12"> </metadata> <defs id="defs10"/> <g transform="translate(0.000000,4000.000000) scale(0.100000,-0.100000)" fill="#000000" stroke="none" id="g4"/> <path style="stroke-width:0.1" d="m 2963.2139,291.79785 v 291.8 l -6.2,1.3 c -8.6,1.8 -22.1,8.8 -29,15 -14.5,12.9 -22.1,29.8001 -22.1,49.0001 0,18.6999 5.8,32.6999 19.2,46.1 9.7,9.6999 18.3,14.7999 30.5,17.8999 l 7.1,1.8 0.3,37.1001 c 0.2,34.7 0.1,37.2 -1.5,37.7 -9.6,2.8999 -18.5,10.3999 -22.8,19.0999 -3.9,7.9001 -4.6,19.2 -1.8,27.6 l 2,5.7 -13.6,7.9001 c -7.5,4.3 -39.9,22.9999 -72.1,41.5999 -32.2,18.6 -80.1,46.3001 -106.5,61.5 -120.4,69.50005 -173,99.90005 -185.8,107.30005 l -13.8,7.9 -4.9,-5.1 c -13.1,-13.6999 -33.7,-15.4999 -48.5,-4.3 -17.6,13.3 -19.4,39.3 -3.8,55 5.1,5 12.8,8.9 19.6,9.8 l 4.7,0.7 v 53.7 53.8001 l -14.7,-8.5001 c -8.2,-4.6999 -28.5,-16.3999 -45.3,-25.9999 -16.8,-9.7001 -31,-17.9001 -31.6,-18.4001 -0.8,-0.6 -0.5,-2.5999 0.9,-6.6 4.3,-12.9 0,-29.4 -9.9,-38.2 -8.7,-7.5999 -19.9,-11 -30.1,-9.0999 -12.6,2.2999 -22.3,9.6 -27.7,21 -2.6,5.5999 -3.1,7.6999 -3.1,14.4999 0,5.4 0.6,9.6 1.9,12.8001 1,2.7 1.7,4.9999 1.5,5.1 -0.2,0.1999 -13.9,8.1999 -30.4,17.7 -16.5,9.4999 -57,32.8999 -90,51.9 -33,19.1 -91,52.5999 -129,74.4999 -37.9,21.9 -85.4001,49.4001 -105.5001,61.0001 l -36.4999,21.1999 -4.3001,-4.8 c -2.7,-3 -6.7999,-6 -10.9999,-8.1 -6.2,-3.0999 -7.4,-3.3 -16.7,-3.3 -8.8,0.1001 -10.6,0.4001 -15.1,2.7 -2.8001,1.5 -6.5,3.9 -8.2001,5.3001 l -3.0999,2.6 -22.3,-12.9 c -12.3,-7.0001 -26.5001,-15.2 -31.6001,-18.2 -5.1,-2.9001 -9.3999,-5.6001 -9.6999,-6 -0.2001,-0.3 0.3,-2.9001 1.1,-5.6001 5.8999,-19.5 3,-39.7999 -8.1,-56.4999 -25.3001,-38.0001 -81.4001,-38.7 -108.1001,-1.2 -5.3,7.2999 -9.9999,18.6999 -11.1999,26.4999 l -0.7001,5.3001 -854.79987,0.3 -854.7001017,0.2 v 7.9999 8.0001 H 861.21393 1716.2138 l 0.6,2.7 c 2.7,12.3999 9.1,24 17.9001,32.7999 8.1,8.0001 15.1999,12.5001 25.7,16.3001 6.4999,2.4 8.7,2.5999 20.8,2.5999 12.0999,0 14.3,-0.1999 20.7999,-2.5999 10.4001,-3.7001 17.6001,-8.3 25.3001,-15.9 l 6.6,-6.5 31.9,18.3999 31.8999,18.4001 -0.3,9.1 c -0.3,7.5 0,10.2 1.8,14.9 4.2,11.2 15.1001,20.2 27.8001,22.9 l 5.1999,1.1 v 226.2999 226.2 l -4.8,0.7001 c -10.5,1.3999 -21.3999,9.4 -26.8999,19.8 -2.6,4.9 -2.8001,6.1999 -2.8001,16.3 0,10.1 0.2001,11.4 2.8001,16.2999 3.7999,7.2 10,13.3001 17.2999,16.7001 5.1,2.4999 7.1001,2.9 14.9001,3 8,0 9.6999,-0.3 15.5,-3.1 3.9,-1.8 8.5,-5.1 11.5,-8.2001 l 5.1,-5.1 6.3999,3.8001 c 3.6,2.1 23.2001,13.4 43.5,25.1 20.4,11.8 38.2001,22.0999 39.8001,22.9999 l 2.7,1.7001 -28.7001,16.5 c -15.9,9.0999 -36.6999,21.2 -46.3999,26.7999 l -17.7,10.1001 -5.1,-5.4 c -7.5,-7.9 -15,-11.1 -26.1,-11.1 -7.4,0 -9.3,0.3999 -15.2,3.0999 -8.1,3.8001 -14.1,9.7001 -17.7,17.2001 -2.3001,4.9 -2.6001,6.7999 -2.6001,16.0999 0,10.1001 0.1001,10.8 3.4001,16.8 5.5,10.2 15.6,17.4 26.4,18.8001 l 4.6999,0.6999 v 226.3001 226.4 l -2.7,0.5 c -11.7,2.4 -17.1,5.3 -23.5999,12.5 -6.7001,7.4 -8.9,14.2 -8.6,25.8 l 0.3,9.3 -24,13.7 c -13.1001,7.6 -27.4,15.9 -31.8,18.4 l -7.8,4.5 -6.2001,-6.1 c -7.5,-7.6 -15.6,-12.6 -26.1,-16.3 -7.0999,-2.4 -9.3999,-2.7 -20.4999,-2.7 -11.1,0 -13.4001,0.3 -20.5,2.7 -11,3.9 -18.8,8.8 -26.7001,16.9 -11.5999,11.9 -19.3,31.4 -18.7,47.3 l 0.3,6 -854.69987,0.3 -854.7001017,0.2 v 8 8 H 863.01393 1719.7139 l 3.4999,6.6 c 9.7001,18.4 28.8,31.4 50.4001,34.4 31.2,4.4 63.1999,-17.6 71.2999,-49 2.3001,-9.2 2.1,-25.4 -0.4999,-34.5 -1.2,-3.9 -1.8,-7.3 -1.4,-7.7 0.3999,-0.4 14.7999,-8.8 32,-18.8 l 31.3,-18 4.1,3.5 c 6.1,5.1 13.8,7.8 22.8,7.8 10.6,0 17.5999,-2.9 25.3999,-10.4 3.3,-3.3 6.1001,-5.9 6.3,-5.9 0.3,0 14.1,7.9 94.8,54.5 67.6001,39.1 147.6,85.2 237.0001,136.8 32.5,18.7 59.2,34.2 59.4,34.3 0.1,0.2 -0.5,2.7 -1.5,5.6 -1.2,3.3 -1.9,8.1 -1.9,12.8 0.1,17.4 12.6,31.8 30.8,35.1 15.5,2.9 31.6,-6 38.5,-21 3.5,-7.7 4.1,-18.5 1.5,-26.4 l -2,-5.8 9.1,-5.3 c 7.3,-4.2 58.3,-33.7 78.3,-45.2 2.3,-1.3 4.4,-2.4 4.7,-2.4 0.3,0 0.6,24 0.6,53.4 v 53.3 l -4.5,0.6 c -10.9,1.5 -22,9.8 -27.2,20.5 -2.5,5 -2.8,6.8 -2.8,15.2 0,8.8 0.3,10.1 3.3,16.2 9,18.3 30.5,25.6 49.1,16.6 2.5,-1.2 7,-4.6 9.8,-7.5 l 5.3,-5.3 61.2,35.3 c 33.7,19.5 89,51.4 122.8,70.9 33.8,19.5 80.4,46.4 103.5,59.8 23.1,13.3 56,32.3 73.1,42.1 l 31.1,18 -2,5.7 c -2.7,8.1 -2.1,19.9 1.6,27.3 3.7,7.6 10.6,14.2 18.3,17.6001 l 6.4,2.7999 -0.2,36.8 -0.3,36.9 -8.5,2.5 c -11.4,3.3 -19.2,7.6 -27.2,15.1 -11.9,11.2 -18.6,24.1 -20.8,39.9 -3.3,24.4 8.4,49.5 29.5,63.3 6.6,4.3 16.6,8.4 23.3,9.5 l 4.2,0.7 v 268.4 268.4 h 8 8 l 0.2,-268.1 0.3,-268.1 8.5,-2.5 c 12.7,-3.7 19.4,-7.6 29,-17.3 14.3,-14.2 19.5,-26.6 19.4,-46.5 0,-10.4 -0.4,-13.1 -2.8,-20 -5,-14.6 -13.6,-26.1 -25.4,-33.8 -7.4,-4.9 -17.4,-9.1 -23.9,-10.2 l -4.3,-0.7 v -37.2 -37.1999 l 5.8,-2.6001 c 8.7,-3.9999 13.6,-8.8 17.9,-17.5 3.4,-6.9 3.7,-8.2 3.6,-15.6 0,-5 -0.7,-9.9 -1.7,-12.6 -0.9,-2.5 -1.3,-4.8 -0.9,-5.2 0.8,-0.7 38,-22.3 140.3,-81.4 25.6,-14.8 71,-41 101,-58.3 30,-17.3 75.2,-43.4 100.5,-58 25.3,-14.6 46.7,-27 47.6,-27.5 1.2,-0.7 2.7,0.2 6.7,4.5 7.6,8 15,11.2 26.2,11.2 11.1,0 18.6,-3.2 26,-11 7.8,-8.2 9.5,-12.8 9.5,-25.4 0,-9.6 -0.2,-11 -2.8,-15.8 -5.6,-10.6 -16.2,-18.4 -26.9,-19.8 l -4.8,-0.7 v -53.3 c 0,-29.4 0.4,-53.4 0.8,-53.4 0.4,0 10,5.3 21.2,11.8 11.3,6.5 31.8,18.3 45.5,26.2 13.8,7.9 25.1,14.4 25.3,14.6 0.2,0.1 -0.6,2.9 -1.8,6.3 -2.4,7.3 -2.6,13.8 -0.4,21.2 3.2,10.9 9.9,18.5 20.6,23.3 23.1,10.4 49.1,-5.6 50.6,-31.2 0.3,-6 0,-9 -1.6,-13.5 l -2.1,-5.7 2.2,-1.4 c 1.2,-0.7 24.3,-14.1 51.2,-29.6 27,-15.6 78.3,-45.2 114,-65.8 35.8001,-20.7 76.5,-44.2 90.6,-52.3 14,-8.1 49.7,-28.7 79.3001,-45.8 29.4999,-17.1 54.0999,-31.1 54.4999,-31.1 0.4001,0 2.3,1.9 4.3001,4.3 1.8999,2.4 6.1999,5.7 9.3999,7.4 13.9,7.4 29.0001,6 41.5,-3.8 l 3.6,-2.8 3,1.9 c 1.7,1 15.8,9.1 31.4,18.1 15.6,8.9 28.6,16.4 28.8,16.5 0.2001,0.2 -0.6999,4 -1.8999,8.5 -2.7,10 -2.9001,24.4 -0.5001,33.4 10.2,38.6 50.7,59.7 87.5001,45.4 21.4999,-8.3 37.5999,-28.1 41.4999,-51.2 l 0.6,-3.7 h 889.4 889.5001 v -8 -8 l -889.6,-0.2 -889.6001,-0.3 -2.1999,-7.5 c -3.4001,-11.7 -8.1,-19.5 -17.1,-28.5 -6.3,-6.3 -9.8001,-9 -16.6001,-12.3 -25.6,-12.6 -54.3,-8.3 -74.7,11.3 l -7.6,7.2 -29.4999,-17 c -16.3001,-9.3 -30.5001,-17.6 -31.6001,-18.4 -1.8,-1.2 -1.9999,-2.5 -1.9999,-11.1 0,-8.8 -0.3,-10.3 -3.2001,-16.4 -5.1999,-11.1 -13.7,-17.9 -25.2999,-20.3 l -5.5001,-1.2 -0.3,-226.5 -0.1999,-226.6 4.6999,-0.7 c 2.7,-0.4001 7.4,-2 10.6001,-3.7001 15.6,-8.2999 22.8999,-25.8 17.7999,-42.6 -8,-26.4999 -40.8,-34.6999 -60.3999,-15.0999 l -5.8001,5.9 -30.1999,-17.4 c -46.7001,-26.9 -60.1001,-34.7 -61.0001,-35.5001 -0.4,-0.4999 19.9001,-12.7999 45.3,-27.4999 l 46.1,-26.7 4.5,4.9999 c 2.9001,3.2001 7,6.2001 11.2,8.3001 6,3 7.5,3.3 15.7001,3.3 8.1999,0 9.6999,-0.3 15.6,-3.2001 7.8999,-3.9 13.9999,-10.2 17.7,-18.0999 2.2999,-4.8 2.7,-7.1001 2.7,-14.7 0,-7.6 -0.4001,-9.9 -2.7,-14.7 -5.1,-10.9 -16.3001,-19.7001 -27.4001,-21.4 l -4.3999,-0.6 v -226.3001 c 0,-205.4 0.1,-226.2999 1.5999,-226.8999 0.9,-0.3 2.5,-0.6 3.7,-0.6 3,0 12.2,-4.4 16.7,-8 8.5,-6.7 13.4001,-18.9 12.8001,-31.6 l -0.3,-7.5 31.5,-18.3 31.5,-18.2 8.1,7.5 c 26.4,24.8 65.2999,24.2 90.9,-1.4001 5.5999,-5.4999 9.3,-10.2 11.7999,-15.1999 3.9,-7.5 7.7001,-20.3 7.7001,-26 v -3.3 h 889.4999 889.5001 v -8.0001 -7.9999 l -890.2,-0.2 -890.1001,-0.3 -1.8,-5.2 c -6.9,-20.2001 -22.2,-35.7 -41.8999,-42.3 -9.1001,-3 -26.0001,-3.8 -35.5001,-1.6001 -36.3,8.6001 -58.2,45.4001 -48.4999,81.5001 1.2,4.5 2.1,8.3 1.8999,8.4999 -0.3,0.2001 -61.1,35.2001 -63.2,36.3 -0.4,0.3 -2.4,-0.9999 -4.3999,-2.7999 -6.7001,-5.8 -11.6001,-7.4001 -22.8,-7.4001 -9,0 -10.6001,0.3 -16.0001,2.9001 -3.3,1.7 -8.1,5.1999 -10.6999,7.8 -2.6001,2.6 -4.9001,4.8 -5.3001,4.8 -0.3,0 -9,-4.9 -19.2999,-10.9 -10.3001,-5.9 -49.7001,-28.7 -87.7001,-50.6 -37.9,-21.9 -96,-55.4001 -129,-74.5 -33,-19.0001 -80.9,-46.7 -106.5,-61.5001 -25.6,-14.7 -47,-27.1999 -47.6,-27.6 -0.8,-0.6 -0.5,-2.5999 0.9,-6.6 2.7,-8.2 2,-19 -1.7,-26.7 -3.8,-7.6999 -10.4,-14.1 -18.2,-17.8 -5.5,-2.6 -7.8,-3.0999 -14.2,-3.0999 -10.4,0 -17.5,2.7999 -25.1,9.9 -10.7,9.9 -14.6,24.0999 -10.2,37.2999 1.2,3.5001 2.1,6.4 1.9,6.6 -2.4,1.7001 -91.1,52.5 -91.8,52.5 -0.7,0 -0.9,-19.1 -0.8,-53.1999 l 0.3,-53.2001 4.3,-0.7999 c 11.1,-1.9001 20.8,-8.9001 26.3,-19.0001 3.3,-6 3.4,-6.7999 3.4,-16.8 0,-9.4999 -0.3,-11.1 -2.8,-16.2 -6.1,-12.3 -18.8,-20.2 -32.7,-20.1 -10.6,0 -17.7,2.9 -25.4,10.4 -3.3,3.3 -6.1,5.9001 -6.3,5.9001 -0.1,0 -32.3,-18.5001 -71.5,-41.2001 -39.2,-22.6 -110.2,-63.60005 -157.8,-91.09995 -47.6,-27.4001 -103.5,-59.6 -124.2,-71.5001 -32.8,-18.7999 -37.7,-21.9999 -37.3,-23.7 3.8,-13.8999 3.8,-14.5999 2.6,-21.1999 -2.3,-12.8 -9.5,-22.2 -20.8,-27.5 l -6.3,-3 v -37.4001 -37.3999 h 2.3 c 3.9,0 16.4,-4.7001 22.7,-8.5001 13.4,-8.1 23.9,-21.3 28.7,-36 2.2,-6.8 2.6,-9.8 2.7,-20 0,-13.6 -0.8,-17.4 -6.6,-29.5 -3.3,-7 -5.6,-10 -12.7,-17 -9.6,-9.5 -18.2,-14.5 -30.6,-17.7 l -7,-1.9 -0.3,-291.7 -0.2,-291.69999692 h -8 -8 z m -2.2,567.7001 2.2,0.6 v 344.19995 344.2001 l -7,1.7 c -23.4,5.5999 -42.3,24.1 -48.6,47.8 -2.2,8.4 -2.3,23.3 0,31.8999 3.1,12.1001 8.1,20.7 17.5,30 9.8,9.8 18.5,14.9 30.3,17.9 l 7.3,1.9 0.3,81.0001 0.2,81 -2.8,0.7 c -2.5,0.5 -10.7,-3.9 -58.6,-31.6 l -55.6,-32.1 v -158.9 -158.9 l 2.8,-0.5001 c 11.6,-2.2999 20.2,-7.5 25.9,-15.9 12.5,-18.1999 5.4,-44.1 -14.7,-53.4999 -4.8,-2.3001 -6.8,-2.6001 -15.5,-2.6001 -8.9,0 -10.6,0.3 -15.6,2.8001 -3.1,1.5 -7.9,5.1 -10.7,8.1 l -5,5.2999 -12.9,-7.5 c -19.4,-11.2999 -167.9,-96.9999 -218,-125.8999 l -44.3,-25.5001 v -64.5 -64.6 l 4.1,-4.4 c 4.1,-4.5 8.9,-13.3 8.9,-16.5 0,-2.2999 -1.1,-1.6999 66,-40.3999 32.2,-18.5001 78.5,-45.3 103,-59.40005 24.5,-14.2001 59.6,-34.4 78,-45 18.4,-10.6001 54.7,-31.5 80.5,-46.5 63.2,-36.5 78.9,-45.5 79.5,-45.5 0.3,0 1.5,0.3 2.8,0.6 z m 102.5,44.6 c 43,24.7999 99.8,57.6 126.2,72.7999 26.4,15.3 63.5,36.70015 82.5,47.70005 19,10.9001 53.5,30.9 76.7,44.2001 l 42.1,24.3999 1.2,4.6 c 1.3,5.3 4.1,10.0001 8.7,15.2 l 3.3,3.7 -0.2,64.7 -0.3,64.7001 -25.5,14.7 c -14,8.1 -54.7,31.5999 -90.5,52.2999 -108.9,62.9001 -147.8,85.3001 -153.1,88.3001 l -5.2,2.8999 -5.1,-5.2999 c -2.9,-2.9 -7.5,-6.4001 -10.8,-7.9001 -5.1,-2.4 -7,-2.7 -15.8,-2.7 -9.1,0 -10.5,0.3 -15.8,3 -12.7,6.3 -20,18.5001 -20.1,33 0,7.0001 0.4,9 3.1,14.7 4.9,10.4001 14.3,18.3 24.3,20.3001 1.9,0.3 4.3,0.9 5.3,1.1 1.6,0.4999 1.7,9 1.7,159.4 v 158.9 l -6.2,3.6999 c -3.5,2.0001 -28.5,16.5 -55.7,32.2001 -43.9,25.3 -49.7,28.3999 -52,27.6 l -2.6,-0.9 -0.3,-80.8001 c -0.2,-64.1 0,-80.7999 1,-81.0999 18.7,-5.0001 26,-8.5001 35.6,-17.1 7,-6.3 13.9,-17.1 17.6,-27.4001 2.7,-7.6999 3,-9.9 3,-20.5999 0.1,-19.9001 -5.1,-32.3 -19.3,-46.5 -9.6,-9.5 -18.2,-14.5001 -30.6,-17.7 l -7,-1.9001 0.1,-343.8 c 0.1,-363.50005 -0.1,-345.50005 4.2,-345.59995 0.7,0 36.4,20.3 79.5,45.2 z m -679.7,292.89995 c 3.9,0.7 6.9,0.6 12,-0.5 l 6.9,-1.3999 55.7,32.1999 55.8,32.1 v 159.1001 159.1 l -4.8,0.6999 c -10.7,1.4001 -21.7,9.7001 -26.9,20.4 -2.5,5.0001 -2.8,6.8001 -2.8,15.2001 0,8.7999 0.3,10.1 3.3,16.2 6.4,13.1 17.9,20.0999 32.7,20.1999 7,0 9,-0.4 15,-3.3 4.6,-2.1 8.6,-4.9999 11.7,-8.2 l 4.7,-5 39.8,22.9001 c 21.9,12.6999 61,35.1999 86.8,50.1 25.9,14.8999 69.8,40.2999 97.7,56.4 l 50.7,29.1999 0.1,64.4001 c 0,58.5999 -0.2,64.5999 -1.7,66.3 -0.9,0.9999 -2,1.8 -2.5,1.8 -0.5,0 -32.2,-18.1 -70.4,-40.2 -61.4,-35.4 -69.5,-40.4001 -69.1,-42.2001 0.3,-1.2 1.2,-4.9999 2.2,-8.5999 2.6,-9.8 1.7,-27 -2,-37.0001 -10.9,-29.4 -39.9,-47.3 -70,-43.0999 -15.6,2.2 -29.8,9.3 -39.9,19.9999 l -4.6,5.1 -45.3,-26.1999 c -76.9,-44.4 -164.5,-95.0001 -228.7,-132 -33.8,-19.5 -87.6,-50.6 -119.5001,-69 -31.8999,-18.5 -64.0999,-37.0001 -71.4999,-41.3 -10.7001,-6.1 -70.8,-40.8 -124.3,-71.7 -6.2,-3.6 -6.7001,-4.1001 -6.1001,-6.6 0.4001,-1.5 0.7001,-2.8 0.8001,-2.8 0.1,-0.1001 45.6,-26.4 101.1,-58.4 55.5999,-32.1 120.9999,-69.9 145.5,-84 24.5,-14.1 69.7,-40.2 100.5,-58.0001 30.8,-17.7 56.5,-32.7 57,-33.1999 0.6,-0.5001 1.9,-0.6 3,-0.3 1.1,0.3 4.3,0.9999 7.1,1.5999 z m 1165,0 c 3.9,0.7 6.9,0.6 12,-0.5 l 6.9,-1.3999 48,27.7999 c 58.5,33.8 154.3001,89.1001 195,112.6001 164.8001,95 163.0001,93.9 163.0001,96.9 0,2.7 -2.8001,4.4 -51,32.3 -47.8001,27.6 -79.2,45.7 -234.5001,135.4 -33.8,19.5 -90.7,52.4 -126.5,72.9999 -35.7,20.7 -91.5,52.9001 -123.9,71.6 l -59,34.1001 -7.7,-7.3 c -20.8,-19.5 -49.1,-23.8001 -74.5,-11.1 -16,7.9 -27.4,21.1 -33,38.2 -2.5999,7.8 -2.8999,10.1 -2.8,20.7999 0,9.4001 0.5001,13.4001 2.2,18.5001 1.2,3.5 2,6.5 1.9001,6.6 -1.0001,0.8 -136.7001,78.9 -138.4001,79.7 -1.6,0.7 -2.7,0.6 -3.8,-0.3 -1.3,-1.1 -1.5,-9.2 -1.5,-66.5 v -65.3001 l 15.3,-8.7 c 22.1,-12.6999 215.3,-124.4 256.8,-148.2999 2.4,-1.5 2.7,-1.4 7.2,3.4999 14.1,15 36,16.0001 51.2,2.2001 3.2,-3 6.5,-7.3001 8.2,-10.7 2.5,-5.1 2.8,-6.7 2.8,-16.2 0,-9.5001 -0.3,-11.0001 -2.7,-15.7 -5.7,-10.7 -13,-16.5 -24.8,-19.4 l -6.5,-1.7001 V 1418.298 1259.3979 l 55.5,-32.1999 c 37.6,-21.8001 56.1,-32.0001 57.5,-31.7001 1.1,0.2001 4.3,0.9 7.1,1.5 z m -941.9,116.0001 c 37.3,21.6 81.3,47 97.8,56.4999 16.5,9.5001 46.6,26.9001 66.9,38.6001 l 36.8,21.3 1.8,5.6 c 1.7,5.7 6.1,12.9 9.9,16.3 l 2.1,1.8999 v 155.4 c 0,85.4 -0.4,155.3 -0.9,155.3 -0.4,0 -23.3,-12.9999 -50.7,-28.8 -72.4,-41.7999 -170.6,-98.4999 -194.9,-112.4999 -22.8,-13.1001 -24.5,-14.2 -24.5,-16.6 0,-3.1001 -4.9,-12 -8.9,-16.4 l -4.1,-4.4001 v -155.7 c 0,-85.5999 0.2,-155.5999 0.5,-155.5999 0.2,0 30.9,17.5999 68.2,39.1 z m 797.3,116.4999 v 155.7 l -3.5,3.8001 c -3.9,4.2999 -7.9,11.7999 -8.9,16.5999 -0.6,2.6001 -1.9,3.9 -6.4,6.4001 -5.8,3.3 -91.2,52.5999 -168.7,97.3999 -71.8,41.5001 -94.5,54.5 -95,54.5 -0.3,0 -0.5,-69.9999 -0.5,-155.6 v -155.7 l 3.5,-3.7999 c 3.8,-4.2 7.9,-11.8001 8.9,-16.4 0.7,-3.2001 -5.5,0.5 138.6,-82.6 17.9,-10.3001 54.6,-31.6001 81.5,-47.2001 27,-15.6999 49.3,-28.5 49.8,-28.5999 0.4,-0.1 0.7,69.9 0.7,155.4999 z m -1379.5,56.9001 c 33.6,19.4 87.3,50.4999 119.5,69 57.8,33.3999 128.3,74.1 252,145.4999 34.9,20.2 82.9,47.9001 106.5,61.5 23.7,13.6001 45.4,26.2001 48.3,27.9 3.7,2.2001 5,3.5001 4.6,4.6001 -2.8,6.6 -3.8,13.5 -3.8,24.4999 0,10.5 0.4,13.0001 2.8,20.0001 7.1,20.7 22.2,35.4 43.1,42.0999 10.1,3.3 25.3,3.7001 35.5,1.0001 10.5,-2.8001 21.6,-9.2 29.5,-16.8 l 7,-6.8 27.5,15.8 c 100.5,57.7999 112,64.6999 112,66.7 0,1.1 -0.4,2.4999 -0.8,3.0999 -0.4,0.6 -14.6,9.1001 -31.7,18.9 -17,9.8001 -41.7,24.1001 -54.9,31.7001 -13.1,7.5999 -24.4,13.8 -25.2,13.8 -0.7,0 -18.5,-10 -39.6,-22.1001 -21.1,-12.1999 -52.5,-30.3999 -69.8,-40.3999 -17.3,-9.9 -61.7,-35.6 -98.7,-56.9 l -67.2,-38.8 1.7,-4.2 c 2.6,-6.2 2.2,-21.6 -0.6,-27.9 -3.2,-7.1 -11.1,-14.9 -18.5,-18.3 -5.4,-2.5001 -7.4,-2.9 -15.2,-2.9 -8.2,0 -9.7,0.3 -15.7,3.3 -11,5.4 -17.9,14.9 -20.1,27.6 -0.9,5.3 -0.8,7.4 0.7,13.2 1,3.8 1.8,7.5 1.9,8.1999 0.2,1.4001 -5.8,5.0001 -70.3,42.2001 -17.9,10.2999 -70.5,40.7 -117,67.5 -46.5,26.7999 -85.3,48.9999 -86.2,49.2999 -1.0001,0.2001 -16.9001,-8.4 -38,-20.5999 -20.0001,-11.5001 -44.8,-25.9001 -55.2,-31.8 -10.3,-6 -19,-11.4 -19.2,-11.9 -3.2001,-9.2001 -5.4,-13.6 -9,-18.1 l -4.4001,-5.4 v -234.2 c 0,-214.8 0.1001,-234.3 1.6001,-235.9001 1.3,-1.5 2.1,-1.5999 3.7999,-0.6999 1.1001,0.6 29.6001,16.8999 63.1001,36.3 z m 1962.5001,200.7999 v 234.0001 l -4.1001,4.3999 c -3.9999,4.4001 -8.9,13.3001 -8.9,16.4001 0,0.9 -0.7999,2.3 -1.6999,3.0999 -1.0001,0.8001 -25.4001,15.1001 -54.3,31.8 -28.9001,16.6001 -53.4,30.8001 -54.5001,31.5 -2.1999,1.4001 2.0001,3.7001 -116,-64.5 -26.4,-15.1999 -73.2,-42.1999 -104,-60 -30.8,-17.7 -56.3,-32.4999 -56.7,-32.8999 -0.4,-0.3 0.2,-3.3 1.4,-6.6 5.7,-16.7 -2.6,-35.6 -19.1,-43.8 -5.9,-2.9 -7.4,-3.2 -15.6,-3.2 -8.2,0 -9.7,0.3 -15.6,3.2 -7.9,3.9 -14,10.2 -17.7,18.1 -2.3,4.8999 -2.7,6.9999 -2.6,14.7 0,6.3 0.5,10.2 1.7,12.9 1,2.1999 1.4,4.2999 1,4.7 -0.5,0.4 -31.4,18.4 -68.8,39.9 -85.2,49.2 -180.7999,104.4 -194.1,112.0999 -5.5,3.3 -10.7,5.9001 -11.3,5.9001 -1.2,0 -20.1,-10.8 -90.1,-51.2001 -16.9,-9.7999 -21.7,-12.9999 -22.4,-15.0999 -0.5,-1.5 -0.8,-2.8 -0.5,-3 0.2,-0.2001 21.3,-12.5001 46.9,-27.2001 25.6,-14.7999 57,-32.8999 69.9,-40.2999 l 23.3,-13.5 3.9,4.5999 c 4.9,5.6001 16.8,13.8 24.6,16.7001 26.3,9.9999 54.7,3.0999 73.4,-17.8 5.7,-6.4001 12.1,-18.8 14.4,-27.7001 2.2,-8.4999 1.9,-23.4999 -0.5,-33 -1.1,-4.3999 -1.7,-8.1999 -1.3,-8.5999 0.7,-0.7001 82.8,-48.3001 125.8,-72.9001 9.9,-5.7 37.6,-21.7 61.5,-35.5 23.9,-13.8999 55.9,-32.3 71,-41 15.1,-8.7 41.2,-23.7999 58,-33.4999 16.8,-9.7001 41.1,-23.7 54,-31.2 12.9,-7.4 48.3,-27.8 78.5,-45.3 30.3,-17.5001 74.1,-42.8 97.5,-56.2001 23.4,-13.5 43.8,-25.3999 45.5001,-26.4 2.8999,-1.8 3,-1.8 5.1999,0.3 l 2.3001,2.1 z M 2878.4139,1824.998 c 17.2,9.9999 37.9,21.9 45.9,26.4999 l 14.6,8.5001 -2,5.7 c -1.5,4.3999 -1.8,7.6 -1.5,13.6999 0.8,14.2001 7.9,24.7001 21,30.8001 l 6.8,3.2 v 47.8 c 0,26.3 -0.4,47.7 -0.8,47.4999 -0.5,-0.1999 -19,-10.8 -41.3,-23.7 l -40.5,-23.4 0.1,-10.0999 c 0,-8.9 -0.3,-10.8 -2.7,-15.8 -5.1,-11.0001 -16.3,-19.7001 -27.4,-21.4 l -4.4,-0.6 v -53.4 c 0,-29.4 0.2,-53.4 0.5,-53.4 0.2,0 14.5,8.1 31.7,18.1 z m 217.8,35.1999 v 53.3001 l -6,1.2 c -17.8,3.6999 -31.3,22.8999 -28.4,40.4 l 1,5.8999 -5.5,3.3 c -10.9,6.5001 -77.1,44.6001 -77.6,44.6001 -0.3,0 -0.5,-21.6 -0.5,-47.9001 v -47.8999 l 4.8,-1.6001 c 8.6,-2.8999 16.4,-10.5 20.9,-20.2999 2.2,-4.8 2.7,-7.2 2.6,-13.8 0,-4.8 -0.7,-9.8 -1.7,-12.4001 -1.3,-3.6 -1.4,-4.6999 -0.4,-5.5999 0.7,-0.7001 10.8,-6.6 22.3,-13.2 11.6,-6.7001 31.6,-18.2 44.5,-25.7 12.9,-7.5 23.6,-13.6 23.8,-13.6 0.1,0 0.2,24 0.2,53.2999 z m -710.8,9.4001 c 3.4,0.3 8.3,0.1 11.6,-0.7001 l 5.9,-1.2 31.9,18.5001 c 41.5,24 145.1,83.7999 195.9,113 22,12.7 40.4,23.2999 40.8,23.7 0.5,0.4 -7,5.2 -16.5,10.6999 -35.4,20.5001 -142.1,82.1001 -196.5,113.5001 l -56.2,32.5 -6.2,-1.5 c -5.2,-1.3 -7.3,-1.4001 -12.8,-0.3 -3.6,0.6999 -7,1.2999 -7.6,1.2999 -0.5,0 -23.7,-13.0999 -51.5,-29.1999 -27.8,-16.1001 -71.4,-41.3001 -97,-56.0001 -105.1001,-60.6999 -120.3,-69.6 -120.3,-70.5 0.1,-0.4999 9.9,-6.6 21.9,-13.5 12.1,-6.9999 54.4999,-31.5 94.3999,-54.4999 39.9001,-23 90.3001,-52.1 112.0001,-64.7 31.3,-18.1 40,-22.8 42,-22.3 1.4,0.3 5.1,0.7999 8.2,1.2 z m 1165,0 c 3.3,0.3 8.2,0.1 11.6,-0.7001 l 5.8,-1.2 129.9,75.1001 c 71.5,41.2 132.2,76.3 134.8,77.8999 l 4.9,2.8001 -47.4,27.4 c -25.9999,15 -76.5,44.1999 -112.3,64.8 -35.7,20.7 -75.2,43.5 -87.8,50.7 l -22.7,13.2 -6.2,-1.5 c -5.1,-1.3 -7.2,-1.4001 -12.7,-0.3 -3.6,0.6999 -7,1.2999 -7.6,1.2999 -0.5,0 -19.9,-10.8 -43,-24.1999 -48.5,-28.0001 -147.1,-85.0001 -194.7,-112.5 -18,-10.4 -32.6999,-18.9 -32.5,-19.0001 0.3,-0.3 85.2,-49.3999 178.2,-102.9999 38,-21.9 74,-42.7 80,-46.2 8.3,-4.8 11.6,-6.3 13.5,-5.8 1.4,0.3 5.1,0.7999 8.2,1.2 z m -732.4,105.1999 c 8.5,9.9 23.7,14.4 36.3,10.8 4.5,-1.3999 11,-4.8999 16.4,-9.0999 1.5,-1.1001 84,46.2999 82.8,47.4999 -1,1.0001 -74.7,43.6001 -78.9,45.6 -3,1.5 -3.2,1.4001 -7.7,-1.9999 -6.5,-5 -13.6,-7.2 -22.7,-7.1 -10.7,0.1 -17.6,3 -25.1,10.5 l -6,6 -41.7,-24.2001 c -22.9,-13.2 -43.7,-25.2 -46,-26.5999 -2.4,-1.4 -4,-2.9 -3.5,-3.3 0.4,-0.4001 18.8,-11.1 40.8,-23.8001 22,-12.6 42.3,-24.3 45,-25.9999 2.8,-1.7 5.2,-3.1001 5.5,-3.1001 0.3,-0.1 2.4,2.1 4.8,4.8 z m 357.5,21.7001 c 25.4,14.7 46.3,26.7 46.4,26.8 0.2,0.2 -25.9,15.3999 -75.4,43.8 l -17.1,9.9 -4.6,-4.9 c -5.9,-6.3 -12.6,-9.9 -21.3,-11.4 -9.4,-1.6001 -18.4,0.4999 -26.5,6.1999 -3.1,2.2001 -6,4.0001 -6.4,4.0001 -0.3,0 -19,-10.6001 -41.5,-23.6 -35.7,-20.6001 -40.7,-23.8 -39.2,-24.9 1,-0.7 18.5,-10.8 38.8,-22.5 20.4,-11.7 38.2,-21.9 39.6,-22.7001 2.4,-1.5 2.8,-1.2999 7.7,2.1 2.8,2.1 7.7,4.6001 10.9,5.8001 12.5,4.3999 28.2,0.1999 37.3,-9.9 2.5,-2.8001 4.6,-5.1 4.8,-5.2001 0.2,-0.1 21.1,11.9001 46.5,26.5001 z m -1063.5,58.5 c 16.3,9.4999 48.1999,27.9 70.6999,40.9 22.6001,12.9999 70.8,40.8999 107.3001,62 60.1,34.6999 66.3,38.5 65.7,40.3999 -3.3,10.1001 -3.8,14.1 -2.8,20.3001 2.2,12.6 9.1,22.1 20.1,27.5 6.1,3 7.4,3.3 16.2,3.3 8.3,0 10.2,-0.3 15.1,-2.8001 6.8,-3.3 15.2,-11.8999 18.1,-18.3999 3.1,-7.1001 3.6,-18.2001 1,-25.8 -1.1,-3.3 -2,-6.1 -1.9,-6.1 0.1,-0.1001 21.8,-12.7001 48.2,-27.9 26.4,-15.3 69.6,-40.2 96,-55.5 26.4,-15.2 66.2,-38.2001 88.5,-51.1001 22.3,-12.7999 41.4,-23.4 42.5,-23.4 1.9,0 107,60.1001 110.8,63.3 4.8,4.2 5.7,3.6 -65.5,44.7 -37,21.4001 -68.5,39.6 -70,40.4001 -2.7,1.5999 -2.8,1.5 -5.8,-2.1 -12.7,-15.3 -36.9,-24.5001 -57.3,-21.8001 -32.6,4.5 -55.9,29.9001 -57.4,62.5001 -0.4,9.4 1.2,19.8 4.1,26.6 0.6,1.3 -3.6,4.1 -20.6,13.9 -11.7,6.8 -53.2,30.7 -92.3,53.3 -39,22.5 -98.7,57 -132.5,76.5 -33.8,19.5 -87.4,50.4 -119,68.7 -31.6001,18.3 -87,50.2 -123,71 -36,20.8 -75.1001,43.4 -86.9,50.2 -20.3001,11.8 -21.5001,12.3 -23.2,10.7 -1.8,-1.7 -1.9001,-8.7 -1.9001,-236.1 v -234.3 l 4.4001,-5.4 c 2.4,-3 5.4,-8.0001 6.5,-11.3001 1.2,-3.1999 2.2999,-6.3 2.5,-6.7999 0.2,-0.6 19.2,-11.8001 42.2,-25.0001 22.9999,-13.2 47.5999,-27.4999 54.7999,-31.6999 7.2,-4.2 13.7001,-7.7 14.4,-7.7 0.7001,-0.1 14.6001,7.5999 31.0001,17 z m 850.5,78.9 c -0.5,0.4 -3,1.5 -5.8,2.5 -6.2,2.3 -15.1,11 -18.5,18 -3.3,7.1 -3.9,18.9999 -1.2,26.7999 l 1.9,5.8001 -7.1,4.0999 c -3.9,2.2001 -9.6,5.5001 -12.6,7.3001 -14.1,8.2999 -72,41.5 -72.5,41.5 -0.3,0 -0.5,-24 -0.5,-53.4 v -53.3001 l 4.5,-0.6 c 11.3,-1.5999 21.6,-9.4999 26.8,-20.4999 2.9,-6.2001 3.2,-7.5 3.2,-16.8 l -0.1,-10 9.6,-5.4 c 5.2,-3 23.7,-13.7 41,-23.7 l 31.5,-18.2 0.3,47.6 c 0.1,26.2 -0.1,48 -0.5,48.3 z m 99.7,-45.3 c -1.1,6.1 -0.2,15.9 1.9,21.4999 4.2,10.9001 16.2,20.6001 27.7,22.4001 l 4.4,0.6 v 53.4999 c 0,30.1001 -0.4,53.3001 -0.9,53.1 -0.5,-0.1999 -21.2,-12 -46,-26.2999 -39.2,-22.6001 -45,-26.3 -44.6,-28.0001 3.7,-13.5999 3.8,-14.5999 2.6,-21.1999 -2.7,-14.7 -12,-25.2 -26.3,-29.7 -1.7,-0.5 -1.8,-3.7001 -1.8,-47.9 0,-26.1 0.2,-47.6001 0.6,-47.9001 0.3,-0.3 19,10.1001 41.7,23.2001 40.5,23.5 41.2,23.8999 40.7,26.7 z m 190.9,-47.3 c 5.8001,3.5 200.6,116 253.4,146.3 11.8,6.7999 14.7,8.8999 14.1,10.2 -10.1,24.4999 5.3,50.2 31.1,51.9 25.7,1.6 45,-23.5001 36.5,-47.8001 -1,-3 -1.6,-5.7999 -1.2,-6.0999 0.4,-0.3 10.4,-6.1 22.2,-12.9 21.1,-12 79.3,-45.7 193.9,-111.9 31.5,-18.2001 57.8001,-33.1 58.4001,-33.1 0.4999,0 19.0999,10.3999 41.1,23.2 22.0999,12.6999 46.3999,26.7 54.0999,31.1 16.7001,9.6 17.1,9.9 17.9001,13.9999 0.9,4.7001 4.2999,10.7001 8.7,15.2001 l 3.9,4.1 v 234 234.1 l -2.3001,2.1 -2.3,2.1 -68.4,-39.5 c -37.6999,-21.8 -94.9999,-54.9 -127.5,-73.6 -55.1,-31.8 -86,-49.7 -252.5,-145.8 -35.5,-20.5 -83.2,-48 -106.1,-61.2 l -41.5,-24.1 2,-5.6 c 1.3,-3.8001 2.1,-9.3 2.4,-17.1 0.4,-9.8001 0.1,-12.8001 -1.7,-19.5 -6.1,-22 -22.2,-39 -43.6,-45.9 -23.5,-7.5 -49.6,-0.9 -67.2999,17.1999 l -5.3001,5.4 -5.1999,-3 c -2.9001,-1.5999 -28.4001,-16.3999 -56.7001,-32.7 -28.3,-16.2999 -57.5,-33.1999 -64.7,-37.3999 -13.3,-7.6001 -14.6,-9 -12,-12.3 0.6,-0.9 17.2,-10.9001 36.7,-22.1 19.5,-11.3001 44.1,-25.5 54.5,-31.5 10.5,-6.1 19.6,-11.1 20.4,-11.2 0.7,0 3.9,1.5 7,3.4 z m -432.7,82.2999 c 1.7,1.5 1.8,4.9001 1.8,66.2001 v 64.6 l -29.8,17.2 c -16.3,9.4 -59.8,34.5 -96.7,55.8 -66.2,38.2 -146.2,84.4 -147.8,85.3 -0.5,0.2 -3.4,-2 -6.5,-5.1 -6.7,-6.4 -11.5,-9.1 -19.8,-10.7 -15.3,-3 -32.3,6 -39.2,20.8 -2.3,4.9 -2.7,7 -2.7,15.2 0,8.5 0.3,10.1 2.9,15.4 5.3,10.7 15.5,18.5 26.8,20.4 l 4.3,0.8 0.3,158.9 0.2,159 -8.7,5.1 c -71,41.2 -102.2,58.8 -103.8,58.7 -1.1,-0.1 -5.5,-0.5 -9.7,-0.9 -4.8,-0.4 -9.4,-0.2 -12.3,0.5 l -4.5,1.1 -60.3,-34.8 c -33.1,-19.2 -88.5,-51.2 -123.2001,-71.2 -56.7999,-32.8 -166.5,-96.1 -206.4999,-119.2 -8.5,-4.9 -15.6,-9.1 -15.7,-9.1 -0.1001,-0.1 -0.4001,-1.4 -0.8,-2.8 -0.6,-2.3 -0.1,-2.9 3.6999,-5.1 5.3001,-3 52.5,-30.2 125.3001,-72.3 56.1,-32.3 138.0999,-79.7 242,-139.7 31.9,-18.4 89.1,-51.4 127,-73.3 38,-21.9 75.4,-43.5 83.1,-48 l 14.2,-8.2 7.4,7.1 c 20.6,19.9 50.5,24.2 76.1,10.9 10.2,-5.2 23,-18.2 27.9,-28.3 2.1,-4.1 4.4,-10.4001 5.2,-14.0001 2.1,-8.5999 2,-24 0,-31.5 -0.9,-3.3 -1.8,-6.9 -2.1,-7.9999 -0.4,-1.8 5.5,-5.5001 42.4,-26.8001 23.5,-13.5999 54.7,-31.5999 69.3,-40.0999 14.6,-8.5001 26.9,-15.5 27.4,-15.5 0.5,-0.1 1.8,0.6 2.8,1.5999 z m 374.6,38.5001 c 38.3,22 69.8,40.2 69.9001,40.3 0.1,0 -0.7001,3 -1.8,6.5 -4.8,15.4 -3.2001,33.4999 4.3999,49 8.2001,16.8 25.9,30.6 44.3,34.5 22.8,4.8 47.3,-2.9 62.9,-20 l 4,-4.4 31.5,18.3 c 17.3,10 62.6,36.2 100.5,58.1 84.1,48.5 176.6,101.9 372.5,215.1 32.2,18.6 65.7,37.9 74.5,43 14.7,8.4 16.0001,9.4 16.0001,12 0,3.1 12.9,-4.5 -188.0001,111.4 -34.6,20 -84.1,48.6 -110,63.5 -117.8,68.1 -108,62.7 -112.2,61.6 -4.9,-1.4 -14.7,-1.4 -19.6,0 -3.7,1 -4.1,0.8 -32,-15.4 -15.5,-9 -40.7,-23.5 -55.9,-32.3 l -27.8,-15.9 0.3,-159 0.2,-159 4.9,-0.7 c 10.6,-1.5 21.4,-9.8 26.7,-20.5 2.1,-4.1 2.4,-6.3 2.4,-15.3 0,-9.5 -0.3,-11.1 -2.8,-16.2 -6.1,-12.3 -18.7,-20.1 -32.7,-20.1 -10.6,0 -17.6,2.9 -25.4,10.4 -3.3,3.3 -6.2,5.9 -6.3,5.9 -0.2,0 -11,-6.2 -24.1,-13.7 -41.9,-24.1 -150.2,-86.7 -200.9,-116 l -49.3,-28.5 v -65.2 c 0,-65.2 0.1,-67.6 3.2,-67.6 0.5,0 32.3,18.1 70.6,40.2 z m -234,42.4 2.2,0.6 v 81.2 81.1 l -7.3,1.7 c -20.7,5 -38,20.2 -45.8,40.2 -14.2,36.7 7.7,78.4 46,87.4 l 7.1,1.6 v 344.2 344.2 l -2.9,0.7 c -2.5,0.5 -9.1,-3 -48.2,-25.6 -25,-14.4 -70.1,-40.5 -100.4,-57.9 -30.2,-17.5 -82.2,-47.5 -115.5,-66.7 -33.3,-19.2 -78.7,-45.5 -101,-58.3 -22.3,-12.8 -41.3,-24 -42.2,-24.8 -1,-0.8 -1.8,-2.2 -1.8,-3.1 0,-3.1 -4.9,-12 -8.9,-16.4 l -4.1,-4.4 v -64.4 -64.4 l 45.3,-26.2 c 24.8,-14.3 72.7,-42 106.2,-61.3 33.6,-19.4 70.9,-40.9 83,-47.9 12.1,-7 26.2,-15.1 31.3,-18.1 l 9.2,-5.3 6,5.7 c 6.6,6.3 12,9.1 20.5,10.7 14.7,2.7 31,-6.2 38.2,-20.9 2.5,-5 2.8,-6.8 2.8,-15.2 0,-8.4 -0.3,-10.2 -2.8,-15.2 -5,-10.1 -15,-18.3 -24.7,-20.3 -1.9,-0.3 -4.3,-0.9 -5.2,-1.1 -1.7,-0.5 -1.8,-8.9 -1.8,-159.3 v -158.8 l 55.8,-32.1001 c 30.6,-17.7 55.9,-32.1999 56.2,-32.1999 0.3,0 1.5,0.3 2.8,0.6 z m 69,25.2999 c 24.6,14.2001 49.4,28.6001 55.2,31.9001 l 10.5,6 v 159.3 159.3 l -4.5,0.8 c -10,1.7 -21,10 -25.8,19.4 -7.4,14.5 -3.9,32 8.5,43.4 7,6.4 14.4,9.3 24.5,9.3 6.9,0.1 8.4,-0.3 15.2,-3.6 4.8,-2.4 8.9,-5.3 11.4,-8.2 2.2,-2.5 4.3,-4.5 4.6,-4.5 0.4,0 11.8,6.4 25.4,14.3 13.6,7.9 35.3,20.4 48.2,27.9 53.5,30.9 141.8,81.9 159.5,92.1 10.5,6 24.1,13.8 30.3,17.4 l 11.2,6.5 v 64.5 64.6 l -3.5,3.8 c -3.9,4.3 -7.9,11.8 -8.9,16.6 -0.7,2.9 -2.6,4.2 -21.9,15.4 -25.6,14.8 -128.6,74.2 -204.7,118.2 -30.5,17.6 -61.1,35.3 -68,39.2 -6.9,4 -34.5,20 -61.5,35.5 -26.9,15.6 -49.9,28.5 -51,28.7 -1.1,0.2 -2.7,-0.1 -3.5,-0.6 -1.3,-0.9 -1.5,-40.3 -1.5,-344.7 v -343.6 l 8.5,-2.5 c 12.7,-3.7 19.4,-7.6 29,-17.3 14.3,-14.2 19.5,-26.6 19.4,-46.5 0,-10.4 -0.4,-13.1 -2.8,-20 -7.5,-21.8 -23.9,-37.1 -46.1,-43.1 l -8,-2.1 -0.3,-80.4 c -0.2,-74.7001 -0.1,-80.5 1.5,-81.7 0.9,-0.6 2.3,-1.2 3,-1.2 0.7,0 21.5,11.6 46.1,25.8999 z m -207.8,208.9001 v 155.8 l -3.6,3.5 c -3.9,3.7 -7.1,9.2 -8.9,15.4 -1.3,4.5 7.5,-0.8 -129,77.9 -34.1,19.7 -79.5,45.9 -100.8,58.3 -21.3,12.3 -39.5,22.7 -40.2,23 -1.3,0.4 -1.5,-19.6 -1.5,-155.2 v -155.8 l 4.1,-4.4 c 4.1,-4.5 8.9,-13.3 8.9,-16.5 0,-2.4 -18.4,8.4 177,-104.3 25.6,-14.8 56.9,-32.8 69.5,-40.2 12.7,-7.3 23.3,-13.3 23.8,-13.3 0.4,0 0.7,70.1 0.7,155.8 z m 347.2,-128.4 c 46.9,27.1 153.7,88.8 198.6,114.6 12.7,7.4 23.2,14 23.2,14.7 0,3.4 4.5,12.4 8.5,17 l 4.5,5.1 v 155.6 c 0,85.6 -0.2,155.6 -0.5,155.6 -0.2,0 -10.4,-5.8 -22.7,-12.9 -12.3,-7.1 -55.6,-32.1 -96.3,-55.6 -167.6,-96.7 -150.4,-86.4 -151.6,-91 -1.6,-5.7 -4.5,-11 -8.4,-15.4 l -3.5,-3.8 v -155.7 c 0,-85.6 0.2,-155.6 0.4,-155.6 0.2,0 21.7,12.3 47.8,27.4 z" id="path2"/> </svg>